<svg xmlns="http://www.w3.org/2000/svg" version="1.1" xmlns:xlink="http://www.w3.org/1999/xlink" xmlns:svgjs="http://svgjs.com/svgjs" width="1440" height="560" preserveAspectRatio="none" viewBox="0 0 1440 560"><g mask="url(&quot;#SvgjsMask1001&quot;)" fill="none"><rect width="1440" height="560" x="0" y="0" fill="rgba(230, 76, 66, 1)"></rect><path d="M 0,187 C 72,170.8 216,98.4 360,106 C 504,113.6 576,224.2 720,225 C 864,225.8 936,124.2 1080,110 C 1224,95.8 1368,145.2 1440,154L1440 560L0 560z" fill="rgba(181, 29, 19, 1)"></path><path d="M 0,483 C 96,453.6 288,332.6 480,336 C 672,339.4 768,490 960,500 C 1152,510 1344,408.8 1440,386L1440 560L0 560z" fill="rgba(255, 255, 255, 1)"></path></g><defs><mask id="SvgjsMask1001"><rect width="1440" height="560" fill="#ffffff"></rect></mask></defs></svg>